HIERARCHY
ROOT hip
{
	OFFSET 0.000000 0.000000 0.000000 
	CHANNELS 6 Xposition Yposition Zposition Xrotation Zrotation Yrotation
	JOINT abdomen
	{
		OFFSET 0.000000 3.402643 0.000000 
		CHANNELS 3 Xrotation Zrotation Yrotation
		JOINT chest
		{
			OFFSET 0.000000 8.438565 -0.680529 
			CHANNELS 3 Xrotation Zrotation Yrotation
			JOINT neck
			{
				OFFSET 0.000000 10.207942 -0.272212 
				CHANNELS 3 Xrotation Zrotation Yrotation
				JOINT head
				{
					OFFSET 0.000000 3.130431 0.000000 
					CHANNELS 3 Xrotation Zrotation Yrotation
					End Site
					{
						OFFSET 0.000000 3.130435 0.000000 
					}
				}
			}
			JOINT lCollar
			{
				OFFSET 3.470700 6.669187 -0.816635 
				CHANNELS 3 Yrotation Zrotation Xrotation
				JOINT lShldr
				{
					OFFSET 3.198488 0.000000 0.000000 
					CHANNELS 3 Zrotation Yrotation Xrotation
					JOINT lForeArm
					{
						OFFSET 10.139888 0.000000 0.000000 
						CHANNELS 3 Yrotation Zrotation Xrotation
						JOINT lHand
						{
							OFFSET 8.370511 0.000000 0.000000 
							CHANNELS 3 Zrotation Yrotation Xrotation
							End Site
							{
								OFFSET 4.083176 0.000000 0.000000 
							}
						}
					}
				}
			}
			JOINT rCollar
			{
				OFFSET -3.470700 6.669187 -0.816635 
				CHANNELS 3 Yrotation Zrotation Xrotation
				JOINT rShldr
				{
					OFFSET -3.198488 0.000000 0.000000 
					CHANNELS 3 Zrotation Yrotation Xrotation
					JOINT rForeArm
					{
						OFFSET -10.139888 0.000000 0.000000 
						CHANNELS 3 Yrotation Zrotation Xrotation
						JOINT rHand
						{
							OFFSET -8.370511 0.000000 0.000000 
							CHANNELS 3 Zrotation Yrotation Xrotation
							End Site
							{
								OFFSET -4.083176 0.000000 0.000000 
							}
						}
					}
				}
			}
		}
	}
	JOINT lThigh
	{
		OFFSET 5.308129 -1.633274 1.361059 
		CHANNELS 3 Xrotation Zrotation Yrotation
		JOINT lShin
		{
			OFFSET -2.041588 -20.007561 0.000000 
			CHANNELS 3 Xrotation Zrotation Yrotation
			JOINT lFoot
			{
				OFFSET 0.000000 -19.190928 -1.224953 
				CHANNELS 3 Xrotation Yrotation Zrotation
				End Site
				{
					OFFSET 0.000000 -2.449906 4.627600 
				}
			}
		}
	}
	JOINT rThigh
	{
		OFFSET -5.308129 -1.633274 1.361059 
		CHANNELS 3 Xrotation Zrotation Yrotation
		JOINT rShin
		{
			OFFSET 2.041588 -20.007561 0.000000 
			CHANNELS 3 Xrotation Zrotation Yrotation
			JOINT rFoot
			{
				OFFSET 0.000000 -19.190928 -1.224953 
				CHANNELS 3 Xrotation Yrotation Zrotation
				End Site
				{
					OFFSET 0.000000 -2.449906 4.627600 
				}
			}
		}
	}
}
MOTION
Frames: 19
Frame Time: 0.033333
-2.485282 34.986656 128.111481 10.508726 -4.321104 11.825548 32.976192 -6.166405 1.160678 -20.839844 0.000000 0.000000 -35.753464 7.583982 -43.061253 -2.520832 -1.255077 0.218355 -4.754609 -0.109182 -0.002653 -58.634415 9.271600 8.089854 -33.774372 -24.601780 6.422625 -18.932539 -3.667319 -37.682022 4.754609 0.109182 -0.002672 72.727364 24.948076 7.705350 88.510506 14.509414 29.716585 19.167646 -0.529535 43.668598 -44.160286 6.338491 -12.764434 72.259483 18.669333 -6.450421 -39.028122 5.752356 -6.118279 0.339785 -25.011631 -10.733855 45.560806 -0.658039 5.105184 -29.069050 -6.957553 19.436302 
-1.360740 37.115368 129.454300 7.059084 -4.089962 1.700904 31.568523 -4.913850 2.579085 -20.839844 0.000000 0.000000 -29.219328 10.910154 -36.129452 -2.520832 -1.255077 0.218355 -4.754609 -0.109182 -0.002653 -60.203823 9.802966 10.420663 -23.814207 -20.871796 2.169979 -18.100468 -2.293880 -53.815617 4.754609 0.109182 -0.002672 66.420982 25.178629 5.867527 95.245018 16.271473 26.289883 17.326916 -0.660619 41.327484 -32.208881 10.789547 -9.209729 66.470490 14.766626 -5.499269 -36.093018 8.081470 -5.775550 0.838444 -26.021299 -10.158223 40.523201 -1.585810 4.533156 -10.797149 -6.045061 15.747621 
-0.476882 39.462879 130.998154 3.622936 -4.181110 -9.375833 30.645485 -4.065467 3.787739 -20.839844 0.000000 0.000000 -21.379906 13.927774 -28.033617 -2.520832 -1.255077 0.218355 -4.754609 -0.109182 -0.002653 -60.995747 10.715560 6.236353 -14.870823 -19.790865 -2.239937 -15.183377 2.609389 -56.949574 4.754609 0.109182 -0.002672 59.533649 26.356289 3.610803 101.265297 17.242048 20.733568 13.253376 -2.669710 35.543564 -19.967552 14.080194 -4.095498 59.675785 9.535178 -4.669917 -28.382183 9.104684 -8.139892 -0.684046 -26.533361 -9.837294 38.628864 -1.695519 1.242009 4.710189 -9.161060 13.693883 
0.153642 41.769272 132.611053 0.783343 -4.189063 -20.008959 29.849218 -4.367100 4.377738 -20.839844 0.000000 0.000000 -13.526987 16.265724 -20.893864 -2.520832 -1.255077 0.218355 -4.754609 -0.109182 -0.002653 -60.365459 12.215695 -7.391464 -6.366344 -18.487593 -11.580073 -11.868480 7.605565 -44.737751 4.754609 0.109182 -0.002672 53.577061 27.803621 0.313852 105.325615 16.036024 14.801045 8.548219 -5.857649 27.796028 -9.765661 14.843401 0.586998 53.322277 4.383718 -3.450479 -14.876541 8.168624 -12.662402 -3.965450 -26.497974 -10.978361 41.711082 -0.062914 -1.789241 6.354764 -10.444536 10.794014 
0.677079 43.608086 134.128021 -1.566491 -4.090272 -28.921726 29.462847 -4.783384 3.996706 -20.839844 0.000000 0.000000 -7.008893 17.459728 -15.628063 -2.520832 -1.255077 0.218355 -4.754609 -0.109182 -0.002653 -57.921875 14.684799 -13.526474 -5.234190 -14.869766 -19.316133 -11.995803 7.725270 -44.268848 4.754609 0.109182 -0.002672 48.126629 28.809673 -4.190289 107.276054 13.071265 9.969666 4.229828 -9.822026 20.048721 -3.808276 13.513070 2.945823 50.076050 1.053446 -2.938619 0.699449 4.386342 -16.339731 -6.386813 -25.153534 -12.749270 47.129910 2.992563 -3.114923 2.161357 -8.523173 7.383441 
1.229432 44.739700 135.534286 -3.739437 -3.966174 -35.542389 29.533485 -4.462738 3.097189 -20.839844 0.000000 0.000000 -2.224446 17.282482 -12.684330 -2.520832 -1.255077 0.218355 -4.754609 -0.109182 -0.002653 -53.963230 17.522085 -16.369602 -8.766199 -12.237131 -24.173193 -12.075469 6.092809 -47.138733 4.754609 0.109182 -0.002672 42.522278 28.145245 -9.619511 107.317642 9.357378 6.163670 0.357263 -14.030534 12.902662 -2.196856 11.266439 2.891246 51.389294 -0.218889 -4.727972 10.867296 -1.188250 -16.711285 -6.015577 -22.651659 -14.259450 51.713516 6.123788 -5.009482 1.016658 -8.403456 8.216725 
1.855409 45.280380 136.926346 -5.774581 -3.818473 -40.942467 29.741796 -3.828329 2.790995 -20.839844 0.000000 0.000000 1.371865 16.028690 -11.213347 -2.520832 -1.255077 0.218355 -4.754609 -0.109182 -0.002653 -48.500851 19.496130 -18.407473 -14.540107 -10.558996 -26.582869 -9.991346 4.422159 -47.569511 4.754609 0.109182 -0.002672 37.385681 25.605869 -14.798583 105.827751 5.862695 1.522525 -2.872337 -17.854628 4.560010 -2.996699 9.213902 2.089815 55.861691 -0.540281 -6.876640 12.136769 -5.061144 -15.939291 -3.652753 -20.259880 -15.426041 54.511524 8.605970 -7.608914 2.362741 -10.315122 11.481895 
2.543794 45.459076 138.383881 -7.640693 -3.426411 -46.425629 29.924507 -3.598955 3.413706 -20.839844 0.000000 0.000000 3.857579 13.973412 -9.949106 -2.520832 -1.255077 0.218355 -4.754609 -0.109182 -0.002653 -41.460224 20.150366 -17.418200 -21.628019 -7.945345 -26.255451 -6.790255 3.173749 -49.619083 4.754609 0.109182 -0.002672 33.930508 22.293392 -18.689262 103.100792 2.939323 -4.326895 -4.826920 -21.002020 -5.168236 -4.479212 8.001901 1.700501 60.463333 -0.718220 -7.049743 8.931328 -5.191885 -16.923704 -0.654906 -19.255484 -16.531591 55.396797 9.975185 -9.435101 3.605449 -11.877353 13.622098 
3.250520 45.285461 139.914536 -9.455173 -2.851419 -52.738327 29.971638 -3.643928 4.921574 -20.839844 0.000000 0.000000 5.415558 11.115002 -8.590105 -2.520832 -1.255077 0.218355 -4.754609 -0.109182 -0.002653 -33.316475 19.661386 -17.209467 -28.384161 -4.891045 -25.506975 -2.851928 3.631097 -49.005451 4.754609 0.109182 -0.002672 32.921772 19.262678 -20.824261 99.233109 0.833061 -10.359439 -5.384144 -22.667931 -14.704103 -5.759423 8.072596 2.027080 63.131916 -0.971107 -5.568229 7.262619 -3.001537 -18.500521 2.214834 -20.288816 -17.905437 54.595566 10.111522 -9.639369 3.479489 -11.834014 14.305890 
3.979554 44.622429 141.496964 -11.218694 -2.117002 -59.629322 29.853783 -3.352558 6.906126 -20.839844 0.000000 0.000000 6.446404 7.544178 -7.337717 -2.520832 -1.255077 0.218355 -4.754609 -0.109182 -0.002653 -24.519850 18.435574 -20.028746 -34.555080 -3.663959 -25.304619 1.922923 4.752813 -43.749371 4.754609 0.109182 -0.002672 33.647324 16.613668 -21.455124 94.482208 -0.167383 -16.400723 -4.734575 -22.055412 -23.933443 -6.744652 8.921021 2.355426 63.664608 -0.708671 -3.737401 7.111046 -0.178663 -19.557991 4.156839 -23.314167 -19.617399 52.954014 9.115028 -8.225274 1.744828 -10.494357 15.325830 
4.731412 43.464417 143.108353 -12.845486 -1.361548 -66.564644 29.936914 -2.255581 8.562387 -20.839844 0.000000 0.000000 7.013230 3.467132 -5.434563 -2.520832 -1.255077 0.218355 -4.754609 -0.109182 -0.002653 -14.971153 17.000303 -22.004728 -39.885773 -2.957418 -24.140493 6.221095 5.778149 -39.510490 4.754609 0.109182 -0.002672 35.469635 14.641576 -20.942059 88.783882 -0.047809 -22.097240 -2.797026 -19.832308 -32.677883 -7.175569 9.703873 1.665396 62.573967 0.699017 -2.235048 5.377633 3.300253 -19.821558 4.100736 -27.255417 -20.374609 51.937138 6.790296 -5.932936 -2.977539 -10.037681 18.282938 
5.481259 41.888573 144.722290 -13.937266 -0.890948 -73.646118 30.557955 -0.116704 9.592297 -20.839844 0.000000 0.000000 7.182140 -0.221996 -2.518805 -2.520832 -1.255077 0.218355 -4.754609 -0.109182 -0.002653 -4.173314 15.675183 -22.990786 -43.212090 -3.352535 -21.945747 9.803137 7.197943 -36.230217 4.754609 0.109182 -0.002672 38.386185 13.971110 -19.367865 81.554054 0.960126 -26.689709 -0.030357 -17.591471 -40.035820 -6.284893 10.667103 0.308248 60.381630 3.168324 -1.422534 2.072490 6.973404 -18.792702 0.807013 -30.909399 -18.686205 53.418186 3.030497 -2.886306 -11.805314 -11.324373 20.789768 
6.272183 40.060936 146.322998 -14.316610 -0.302795 -81.358276 31.663033 2.700740 9.913651 -20.839844 0.000000 0.000000 6.998658 -3.169958 1.137493 -2.520832 -1.255077 0.218355 -4.754609 -0.109182 -0.002653 6.931140 14.914362 -23.233566 -44.983860 -4.686574 -19.104254 12.317481 9.553282 -33.419960 4.754609 0.109182 -0.002672 43.065838 14.366590 -16.666801 72.722298 2.452174 -29.196695 2.701385 -15.730687 -44.846382 -4.029292 12.051118 -0.895935 57.386116 5.725618 -1.066544 -0.475739 10.360525 -16.652802 -6.650576 -33.435333 -14.041252 57.513252 -1.812120 0.160817 -22.322124 -13.050714 20.800381 
7.157115 38.295219 147.995255 -14.310548 1.324779 -89.585861 32.842506 5.403099 9.134691 -20.839844 0.000000 0.000000 6.241430 -5.727107 5.790093 -2.520832 -1.255077 0.218355 -4.754609 -0.109182 -0.002653 16.762110 14.659492 -23.262085 -46.320957 -6.128445 -16.260910 13.565984 11.541314 -30.727938 4.754609 0.109182 -0.002672 49.851410 14.134467 -13.509682 63.041374 3.364303 -29.954494 5.104226 -14.289566 -47.374123 -1.629830 12.944158 -1.957564 54.229244 7.593518 -0.448422 -2.504217 13.833044 -13.353812 -17.715115 -34.560734 -7.789315 61.962132 -6.435275 2.064961 -30.719004 -13.749347 18.510733 
8.125225 36.898586 149.902649 -14.585862 4.905824 -97.954002 33.558689 7.781763 7.367892 -20.839844 0.000000 0.000000 4.405373 -7.910209 11.076986 -2.520832 -1.255077 0.218355 -4.754609 -0.109182 -0.002653 23.735558 13.536312 -24.133200 -47.584202 -6.861778 -13.872262 14.277526 12.031235 -27.827045 4.754609 0.109182 -0.002672 56.996067 11.807521 -11.899485 53.050148 2.592743 -31.223785 7.154578 -13.446526 -49.387863 -1.346164 12.570126 -2.983011 51.501884 8.208623 0.526659 -4.788019 16.754660 -9.040219 -31.764488 -34.440075 -1.123239 64.864693 -9.948578 3.617257 -34.394180 -12.823199 16.903179 
9.140605 36.106094 152.147568 -15.831229 10.362533 -106.581779 34.181126 10.118044 5.318679 -20.839844 0.000000 0.000000 0.912360 -9.298650 16.608297 -2.520832 -1.255077 0.218355 -4.754609 -0.109182 -0.002653 27.386042 10.385895 -26.243418 -48.596550 -7.034924 -12.100513 15.286386 12.371439 -25.021053 4.754609 0.109182 -0.002672 61.285889 7.888433 -12.925733 42.719479 0.924676 -34.370354 8.865999 -13.183765 -52.144680 -4.751780 11.632557 -3.068380 49.258533 6.910523 1.060292 -6.917310 17.009115 -6.843694 -47.387608 -32.761009 5.161025 64.298126 -11.940799 6.186830 -31.859722 -10.351779 18.253950 
10.108226 36.114723 154.807297 -18.457539 16.968723 -115.260811 35.484753 12.423064 3.029673 -20.839844 0.000000 0.000000 -4.130985 -9.184282 22.571329 -2.520832 -1.255077 0.218355 -4.754609 -0.109182 -0.002653 29.308468 5.295058 -28.368977 -48.410812 -8.031056 -9.811342 16.434107 13.684074 -22.758615 4.754609 0.109182 -0.002672 61.466568 4.581585 -15.504932 31.640882 -0.306559 -37.907692 10.392726 -13.240690 -54.237530 -11.804508 11.043113 -1.692530 47.595024 4.000484 1.692616 -8.353932 15.628902 -9.906651 -61.355556 -30.722166 9.064333 57.834164 -11.169017 9.726939 -24.280809 -6.563186 21.309217 
10.935774 36.701092 157.820419 -22.257519 24.355383 -123.846901 37.420071 14.369264 0.420972 -20.839844 0.000000 0.000000 -9.950095 -6.769532 28.765184 -2.520832 -1.255077 0.218355 -4.754609 -0.109182 -0.002653 31.226498 -0.038106 -29.065306 -46.444942 -10.664541 -5.678783 16.778456 15.658849 -20.765196 4.754609 0.109182 -0.002672 58.990452 2.355295 -17.923096 22.021965 -1.066458 -40.876064 11.461005 -12.800811 -56.081753 -21.357838 11.465271 0.529805 47.678730 0.834351 3.376720 -11.039002 15.336304 -14.637340 -71.154266 -29.578213 9.674694 45.679367 -6.775795 12.141210 -14.672889 -2.353309 24.851940 
11.547535 37.179333 160.701996 -27.356524 32.390621 -133.097015 39.006172 15.512769 -2.232556 -20.839844 0.000000 0.000000 -15.738194 -2.184642 34.924538 -2.520832 -1.255077 0.218355 -4.754609 -0.109182 -0.002653 32.447525 -3.877968 -27.576719 -43.456940 -14.280081 0.402222 16.872740 17.986355 -18.487955 4.754609 0.109182 -0.002672 57.564064 -3.363970 -20.950832 23.504358 -1.691856 -42.870750 8.692955 -14.127335 -56.403168 -31.847755 13.385308 2.077179 48.502769 -1.133491 4.537865 -15.785139 15.950184 -18.198235 -76.792351 -28.328941 7.488647 34.197750 -1.362763 10.986930 -7.683777 1.376150 27.217545 
